<svg width="47" height="47" viewBox="0 0 47 47" fill="none" xmlns="http://www.w3.org/2000/svg">
<path d="M39.1667 11.75V23.5H7.83334M23.5 11.75V35.25M7.83334 11.75V35.25" stroke="white" stroke-width="2.66667" stroke-linecap="round" stroke-linejoin="round"/>
<path d="M43.0833 7.83333C43.0833 8.8721 42.6707 9.86832 41.9362 10.6028C41.2017 11.3374 40.2054 11.75 39.1667 11.75C38.1279 11.75 37.1317 11.3374 36.3972 10.6028C35.6627 9.86832 35.25 8.8721 35.25 7.83333C35.25 6.79457 35.6627 5.79835 36.3972 5.06383C37.1317 4.32931 38.1279 3.91667 39.1667 3.91667C40.2054 3.91667 41.2017 4.32931 41.9362 5.06383C42.6707 5.79835 43.0833 6.79457 43.0833 7.83333ZM27.4167 7.83333C27.4167 8.8721 27.004 9.86832 26.2695 10.6028C25.535 11.3374 24.5388 11.75 23.5 11.75C22.4612 11.75 21.465 11.3374 20.7305 10.6028C19.996 9.86832 19.5833 8.8721 19.5833 7.83333C19.5833 6.79457 19.996 5.79835 20.7305 5.06383C21.465 4.32931 22.4612 3.91667 23.5 3.91667C24.5388 3.91667 25.535 4.32931 26.2695 5.06383C27.004 5.79835 27.4167 6.79457 27.4167 7.83333ZM11.75 7.83333C11.75 8.8721 11.3374 9.86832 10.6028 10.6028C9.86832 11.3374 8.8721 11.75 7.83334 11.75C6.79457 11.75 5.79835 11.3374 5.06384 10.6028C4.32932 9.86832 3.91667 8.8721 3.91667 7.83333C3.91667 6.79457 4.32932 5.79835 5.06384 5.06383C5.79835 4.32931 6.79457 3.91667 7.83334 3.91667C8.8721 3.91667 9.86832 4.32931 10.6028 5.06383C11.3374 5.79835 11.75 6.79457 11.75 7.83333ZM27.4167 39.1667C27.4167 40.2054 27.004 41.2017 26.2695 41.9362C25.535 42.6707 24.5388 43.0833 23.5 43.0833C22.4612 43.0833 21.465 42.6707 20.7305 41.9362C19.996 41.2017 19.5833 40.2054 19.5833 39.1667C19.5833 38.1279 19.996 37.1317 20.7305 36.3972C21.465 35.6626 22.4612 35.25 23.5 35.25C24.5388 35.25 25.535 35.6626 26.2695 36.3972C27.004 37.1317 27.4167 38.1279 27.4167 39.1667ZM11.75 39.1667C11.75 40.2054 11.3374 41.2017 10.6028 41.9362C9.86832 42.6707 8.8721 43.0833 7.83334 43.0833C6.79457 43.0833 5.79835 42.6707 5.06384 41.9362C4.32932 41.2017 3.91667 40.2054 3.91667 39.1667C3.91667 38.1279 4.32932 37.1317 5.06384 36.3972C5.79835 35.6626 6.79457 35.25 7.83334 35.25C8.8721 35.25 9.86832 35.6626 10.6028 36.3972C11.3374 37.1317 11.75 38.1279 11.75 39.1667ZM39.1667 43.0833C40.2054 43.0833 41.2017 42.6707 41.9362 41.9362C42.6707 41.2017 43.0833 40.2054 43.0833 39.1667C43.0833 38.1279 42.6707 37.1317 41.9362 36.3972C41.2017 35.6626 40.2054 35.25 39.1667 35.25C38.1279 35.25 37.1317 35.6626 36.3972 36.3972C35.6627 37.1317 35.25 38.1279 35.25 39.1667C35.25 40.2054 35.6627 41.2017 36.3972 41.9362C37.1317 42.6707 38.1279 43.0833 39.1667 43.0833Z" stroke="white" stroke-width="2.66667" stroke-linecap="round" stroke-linejoin="round"/>
</svg>
