<svg width="32" height="32" viewBox="0 0 32 32" fill="none" xmlns="http://www.w3.org/2000/svg">
<path d="M4.834 4.83398C-1.056 10.724 -1.056 20.276 4.834 26.167C10.724 32.058 20.274 32.055 26.164 26.165C32.054 20.275 32.057 10.725 26.166 4.83498C20.276 -1.05502 10.726 -1.05602 4.834 4.83398ZM25.459 5.54198C26.2682 6.36175 26.9745 7.27718 27.562 8.26798L23.482 12.348C23.0526 11.254 22.4016 10.2605 21.57 9.42998C20.7391 8.59761 19.7449 7.94628 18.65 7.51698L22.73 3.43698C23.7224 4.02476 24.6382 4.73167 25.459 5.54198ZM10.139 20.862C8.71756 19.4395 7.91893 17.5109 7.91855 15.4999C7.91818 13.4889 8.71609 11.56 10.137 10.137C11.5603 8.71678 13.4888 7.91918 15.4995 7.91918C17.5102 7.91918 19.4387 8.71678 20.862 10.137C22.2812 11.5606 23.0781 13.4888 23.0781 15.499C23.0781 17.5091 22.2812 19.4373 20.862 20.861C19.4393 22.2816 17.511 23.0797 15.5004 23.0801C13.4898 23.0805 11.5613 22.2831 10.138 20.863L10.139 20.862ZM5.54 25.46C4.73 24.6389 4.02311 23.7221 3.435 22.73L7.515 18.65C7.94661 19.7433 8.59821 20.7364 9.42939 21.5676C10.2606 22.3988 11.2536 23.0504 12.347 23.482L8.265 27.562C7.295 26.982 6.375 26.292 5.539 25.459L5.54 25.46ZM8.268 3.43398L12.35 7.51598C11.256 7.94617 10.2623 8.59716 9.43095 9.42833C8.59961 10.2595 7.94842 11.253 7.518 12.347L3.436 8.26698C4.016 7.29698 4.706 6.37698 5.541 5.53898C6.36158 4.72925 7.27764 4.02238 8.269 3.43398H8.268ZM22.732 27.562L18.65 23.48C19.7442 23.0504 20.7381 22.3997 21.5695 21.5687C22.4009 20.7376 23.0519 19.744 23.482 18.65L27.564 22.73C26.984 23.7 26.294 24.622 25.459 25.46C24.6384 26.2691 23.7223 26.9753 22.731 27.563L22.732 27.562Z" fill="white"/>
</svg>
